<svg width="1024" height="753" viewBox="0 0 1024 753" fill="none" xmlns="http://www.w3.org/2000/svg">
<g clip-path="url(#clip0_122_130)">
<rect width="1024" height="753" fill="#121214"/>
<g opacity="0.2" filter="url(#filter0_f_122_130)">
<ellipse cx="511.5" cy="41" rx="670.5" ry="350" fill="#B3A659"/>
</g>
<path d="M32.0349 277C33.5302 277 34.6622 277.63 35.4308 278.891C36.2134 280.138 36.6047 281.953 36.6047 284.336C36.6047 286.719 36.2134 288.541 35.4308 289.802C34.6622 291.063 33.5302 291.693 32.0349 291.693C30.5536 291.693 29.4216 291.063 28.639 289.802C27.8564 288.541 27.4651 286.719 27.4651 284.336C27.4651 281.967 27.8564 280.152 28.639 278.891C29.4216 277.63 30.5536 277 32.0349 277ZM28.9534 284.336C28.9534 286.026 29.1072 287.35 29.4146 288.306L34.0683 279.099C33.5791 278.448 32.9013 278.122 32.0349 278.122C31.0706 278.122 30.316 278.635 29.771 279.66C29.2259 280.672 28.9534 282.23 28.9534 284.336ZM32.0349 290.55C33.0131 290.55 33.7748 290.044 34.3198 289.033C34.8648 288.008 35.1373 286.442 35.1373 284.336C35.1373 282.549 34.9627 281.163 34.6133 280.18L29.9596 289.469C30.4627 290.19 31.1545 290.55 32.0349 290.55Z" fill="url(#paint0_linear_122_130)" fill-opacity="0.6"/>
<path d="M33.2926 314.135H36.3741V315.236H28.3874V314.135H31.9511V302.455L28.5551 304.471L27.9682 303.536L32.1607 300.959H33.2926V314.135Z" fill="url(#paint1_linear_122_130)" fill-opacity="0.6"/>
<path d="M32.0349 324.502C33.5302 324.502 34.6622 325.133 35.4308 326.393C36.2134 327.64 36.6047 329.455 36.6047 331.838C36.6047 334.221 36.2134 336.043 35.4308 337.304C34.6622 338.565 33.5302 339.195 32.0349 339.195C30.5536 339.195 29.4216 338.565 28.639 337.304C27.8564 336.043 27.4651 334.221 27.4651 331.838C27.4651 329.469 27.8564 327.654 28.639 326.393C29.4216 325.133 30.5536 324.502 32.0349 324.502ZM28.9534 331.838C28.9534 333.529 29.1072 334.852 29.4146 335.808L34.0683 326.601C33.5791 325.95 32.9013 325.624 32.0349 325.624C31.0706 325.624 30.316 326.137 29.771 327.162C29.2259 328.174 28.9534 329.732 28.9534 331.838ZM32.0349 338.052C33.0131 338.052 33.7748 337.546 34.3198 336.535C34.8648 335.51 35.1373 333.944 35.1373 331.838C35.1373 330.051 34.9627 328.665 34.6133 327.682L29.9596 336.971C30.4627 337.692 31.1545 338.052 32.0349 338.052Z" fill="url(#paint2_linear_122_130)" fill-opacity="0.6"/>
<path d="M33.2926 361.637H36.3741V362.738H28.3874V361.637H31.9511V349.957L28.5551 351.973L27.9682 351.038L32.1607 348.461H33.2926V361.637Z" fill="url(#paint3_linear_122_130)" fill-opacity="0.6"/>
<path d="M33.2926 385.388H36.3741V386.489H28.3874V385.388H31.9511V373.708L28.5551 375.724L27.9682 374.789L32.1607 372.212H33.2926V385.388Z" fill="url(#paint4_linear_122_130)" fill-opacity="0.6"/>
<path d="M32.0349 395.755C33.5302 395.755 34.6622 396.386 35.4308 397.646C36.2134 398.893 36.6047 400.708 36.6047 403.091C36.6047 405.474 36.2134 407.296 35.4308 408.557C34.6622 409.818 33.5302 410.448 32.0349 410.448C30.5536 410.448 29.4216 409.818 28.639 408.557C27.8564 407.296 27.4651 405.474 27.4651 403.091C27.4651 400.722 27.8564 398.907 28.639 397.646C29.4216 396.386 30.5536 395.755 32.0349 395.755ZM28.9534 403.091C28.9534 404.782 29.1072 406.105 29.4146 407.061L34.0683 397.854C33.5791 397.203 32.9013 396.878 32.0349 396.878C31.0706 396.878 30.316 397.39 29.771 398.415C29.2259 399.427 28.9534 400.985 28.9534 403.091ZM32.0349 409.305C33.0131 409.305 33.7748 408.8 34.3198 407.788C34.8648 406.763 35.1373 405.197 35.1373 403.091C35.1373 401.304 34.9627 399.919 34.6133 398.935L29.9596 408.225C30.4627 408.945 31.1545 409.305 32.0349 409.305Z" fill="url(#paint5_linear_122_130)" fill-opacity="0.6"/>
<path d="M33.2926 432.89H36.3741V433.992H28.3874V432.89H31.9511V421.21L28.5551 423.226L27.9682 422.291L32.1607 419.714H33.2926V432.89Z" fill="url(#paint6_linear_122_130)" fill-opacity="0.6"/>
<path d="M32.0349 443.257C33.5302 443.257 34.6622 443.888 35.4308 445.149C36.2134 446.396 36.6047 448.211 36.6047 450.594C36.6047 452.977 36.2134 454.798 35.4308 456.059C34.6622 457.32 33.5302 457.95 32.0349 457.95C30.5536 457.95 29.4216 457.32 28.639 456.059C27.8564 454.798 27.4651 452.977 27.4651 450.594C27.4651 448.224 27.8564 446.409 28.639 445.149C29.4216 443.888 30.5536 443.257 32.0349 443.257ZM28.9534 450.594C28.9534 452.284 29.1072 453.607 29.4146 454.563L34.0683 445.356C33.5791 444.705 32.9013 444.38 32.0349 444.38C31.0706 444.38 30.316 444.892 29.771 445.918C29.2259 446.929 28.9534 448.488 28.9534 450.594ZM32.0349 456.807C33.0131 456.807 33.7748 456.302 34.3198 455.29C34.8648 454.265 35.1373 452.699 35.1373 450.594C35.1373 448.806 34.9627 447.421 34.6133 446.437L29.9596 455.727C30.4627 456.447 31.1545 456.807 32.0349 456.807Z" fill="url(#paint7_linear_122_130)" fill-opacity="0.6"/>
<path d="M32.0349 467.008C33.5302 467.008 34.6622 467.639 35.4308 468.9C36.2134 470.147 36.6047 471.962 36.6047 474.345C36.6047 476.728 36.2134 478.549 35.4308 479.81C34.6622 481.071 33.5302 481.701 32.0349 481.701C30.5536 481.701 29.4216 481.071 28.639 479.81C27.8564 478.549 27.4651 476.728 27.4651 474.345C27.4651 471.975 27.8564 470.16 28.639 468.9C29.4216 467.639 30.5536 467.008 32.0349 467.008ZM28.9534 474.345C28.9534 476.035 29.1072 477.358 29.4146 478.314L34.0683 469.107C33.5791 468.456 32.9013 468.131 32.0349 468.131C31.0706 468.131 30.316 468.643 29.771 469.669C29.2259 470.68 28.9534 472.239 28.9534 474.345ZM32.0349 480.558C33.0131 480.558 33.7748 480.053 34.3198 479.041C34.8648 478.016 35.1373 476.451 35.1373 474.345C35.1373 472.557 34.9627 471.172 34.6133 470.188L29.9596 479.478C30.4627 480.198 31.1545 480.558 32.0349 480.558Z" fill="url(#paint8_linear_122_130)" fill-opacity="0.6"/>
<path d="M33.2926 504.143H36.3741V505.245H28.3874V504.143H31.9511V492.464L28.5551 494.48L27.9682 493.544L32.1607 490.967H33.2926V504.143Z" fill="url(#paint9_linear_122_130)" fill-opacity="0.6"/>
<path d="M32.0349 514.511C33.5302 514.511 34.6622 515.141 35.4308 516.402C36.2134 517.649 36.6047 519.464 36.6047 521.847C36.6047 524.23 36.2134 526.052 35.4308 527.312C34.6622 528.573 33.5302 529.204 32.0349 529.204C30.5536 529.204 29.4216 528.573 28.639 527.312C27.8564 526.052 27.4651 524.23 27.4651 521.847C27.4651 519.478 27.8564 517.663 28.639 516.402C29.4216 515.141 30.5536 514.511 32.0349 514.511ZM28.9534 521.847C28.9534 523.537 29.1072 524.86 29.4146 525.816L34.0683 516.61C33.5791 515.958 32.9013 515.633 32.0349 515.633C31.0706 515.633 30.316 516.145 29.771 517.171C29.2259 518.182 28.9534 519.741 28.9534 521.847ZM32.0349 528.061C33.0131 528.061 33.7748 527.555 34.3198 526.543C34.8648 525.518 35.1373 523.953 35.1373 521.847C35.1373 520.059 34.9627 518.674 34.6133 517.69L29.9596 526.98C30.4627 527.7 31.1545 528.061 32.0349 528.061Z" fill="url(#paint10_linear_122_130)" fill-opacity="0.6"/>
<path d="M33.2926 551.645H36.3741V552.747H28.3874V551.645H31.9511V539.966L28.5551 541.982L27.9682 541.046L32.1607 538.469H33.2926V551.645Z" fill="url(#paint11_linear_122_130)" fill-opacity="0.6"/>
<path d="M33.2926 575.396H36.3741V576.498H28.3874V575.396H31.9511V563.717L28.5551 565.733L27.9682 564.798L32.1607 562.221H33.2926V575.396Z" fill="url(#paint12_linear_122_130)" fill-opacity="0.6"/>
<path d="M70.9651 324.502C72.4604 324.502 73.5924 325.133 74.361 326.393C75.1436 327.64 75.5349 329.455 75.5349 331.838C75.5349 334.221 75.1436 336.043 74.361 337.304C73.5924 338.565 72.4604 339.195 70.9651 339.195C69.4838 339.195 68.3518 338.565 67.5692 337.304C66.7866 336.043 66.3953 334.221 66.3953 331.838C66.3953 329.469 66.7866 327.654 67.5692 326.393C68.3518 325.133 69.4838 324.502 70.9651 324.502ZM67.8836 331.838C67.8836 333.529 68.0374 334.852 68.3448 335.808L72.9985 326.601C72.5093 325.95 71.8315 325.624 70.9651 325.624C70.0008 325.624 69.2462 326.137 68.7012 327.162C68.1561 328.174 67.8836 329.732 67.8836 331.838ZM70.9651 338.052C71.9433 338.052 72.705 337.546 73.25 336.535C73.795 335.51 74.0675 333.944 74.0675 331.838C74.0675 330.051 73.8928 328.665 73.5435 327.682L68.8898 336.971C69.3929 337.692 70.0847 338.052 70.9651 338.052Z" fill="url(#paint13_linear_122_130)" fill-opacity="0.6"/>
<path d="M72.2228 361.637H75.3043V362.738H67.3176V361.637H70.8812V349.957L67.4853 351.973L66.8984 351.038L71.0909 348.461H72.2228V361.637Z" fill="url(#paint14_linear_122_130)" fill-opacity="0.6"/>
<path d="M70.9651 372.004C72.4604 372.004 73.5924 372.635 74.361 373.895C75.1436 375.142 75.5349 376.957 75.5349 379.34C75.5349 381.723 75.1436 383.545 74.361 384.806C73.5924 386.067 72.4604 386.697 70.9651 386.697C69.4838 386.697 68.3518 386.067 67.5692 384.806C66.7866 383.545 66.3953 381.723 66.3953 379.34C66.3953 376.971 66.7866 375.156 67.5692 373.895C68.3518 372.635 69.4838 372.004 70.9651 372.004ZM67.8836 379.34C67.8836 381.031 68.0374 382.354 68.3448 383.31L72.9985 374.103C72.5093 373.452 71.8315 373.126 70.9651 373.126C70.0008 373.126 69.2462 373.639 68.7012 374.664C68.1561 375.676 67.8836 377.234 67.8836 379.34ZM70.9651 385.554C71.9433 385.554 72.705 385.049 73.25 384.037C73.795 383.012 74.0675 381.446 74.0675 379.34C74.0675 377.553 73.8928 376.168 73.5435 375.184L68.8898 384.474C69.3929 385.194 70.0847 385.554 70.9651 385.554Z" fill="url(#paint15_linear_122_130)" fill-opacity="0.6"/>
<path d="M70.9651 395.755C72.4604 395.755 73.5924 396.386 74.361 397.646C75.1436 398.893 75.5349 400.708 75.5349 403.091C75.5349 405.474 75.1436 407.296 74.361 408.557C73.5924 409.818 72.4604 410.448 70.9651 410.448C69.4838 410.448 68.3518 409.818 67.5692 408.557C66.7866 407.296 66.3953 405.474 66.3953 403.091C66.3953 400.722 66.7866 398.907 67.5692 397.646C68.3518 396.386 69.4838 395.755 70.9651 395.755ZM67.8836 403.091C67.8836 404.782 68.0374 406.105 68.3448 407.061L72.9985 397.854C72.5093 397.203 71.8315 396.878 70.9651 396.878C70.0008 396.878 69.2462 397.39 68.7012 398.415C68.1561 399.427 67.8836 400.985 67.8836 403.091ZM70.9651 409.305C71.9433 409.305 72.705 408.8 73.25 407.788C73.795 406.763 74.0675 405.197 74.0675 403.091C74.0675 401.304 73.8928 399.919 73.5435 398.935L68.8898 408.225C69.3929 408.945 70.0847 409.305 70.9651 409.305Z" fill="url(#paint16_linear_122_130)" fill-opacity="0.6"/>
<path d="M72.2228 432.89H75.3043V433.992H67.3176V432.89H70.8812V421.21L67.4853 423.226L66.8984 422.291L71.0909 419.714H72.2228V432.89Z" fill="url(#paint17_linear_122_130)" fill-opacity="0.6"/>
<path d="M70.9651 443.257C72.4604 443.257 73.5924 443.888 74.361 445.149C75.1436 446.396 75.5349 448.211 75.5349 450.594C75.5349 452.977 75.1436 454.798 74.361 456.059C73.5924 457.32 72.4604 457.95 70.9651 457.95C69.4838 457.95 68.3518 457.32 67.5692 456.059C66.7866 454.798 66.3953 452.977 66.3953 450.594C66.3953 448.224 66.7866 446.409 67.5692 445.149C68.3518 443.888 69.4838 443.257 70.9651 443.257ZM67.8836 450.594C67.8836 452.284 68.0374 453.607 68.3448 454.563L72.9985 445.356C72.5093 444.705 71.8315 444.38 70.9651 444.38C70.0008 444.38 69.2462 444.892 68.7012 445.918C68.1561 446.929 67.8836 448.488 67.8836 450.594ZM70.9651 456.807C71.9433 456.807 72.705 456.302 73.25 455.29C73.795 454.265 74.0675 452.699 74.0675 450.594C74.0675 448.806 73.8928 447.421 73.5435 446.437L68.8898 455.727C69.3929 456.447 70.0847 456.807 70.9651 456.807Z" fill="url(#paint18_linear_122_130)" fill-opacity="0.6"/>
<path d="M72.2228 480.392H75.3043V481.494H67.3176V480.392H70.8812V468.713L67.4853 470.728L66.8984 469.793L71.0909 467.216H72.2228V480.392Z" fill="url(#paint19_linear_122_130)" fill-opacity="0.6"/>
<path d="M70.9651 490.76C72.4604 490.76 73.5924 491.39 74.361 492.651C75.1436 493.898 75.5349 495.713 75.5349 498.096C75.5349 500.479 75.1436 502.301 74.361 503.561C73.5924 504.822 72.4604 505.453 70.9651 505.453C69.4838 505.453 68.3518 504.822 67.5692 503.561C66.7866 502.301 66.3953 500.479 66.3953 498.096C66.3953 495.726 66.7866 493.911 67.5692 492.651C68.3518 491.39 69.4838 490.76 70.9651 490.76ZM67.8836 498.096C67.8836 499.786 68.0374 501.109 68.3448 502.065L72.9985 492.859C72.5093 492.207 71.8315 491.882 70.9651 491.882C70.0008 491.882 69.2462 492.394 68.7012 493.42C68.1561 494.431 67.8836 495.99 67.8836 498.096ZM70.9651 504.31C71.9433 504.31 72.705 503.804 73.25 502.792C73.795 501.767 74.0675 500.202 74.0675 498.096C74.0675 496.308 73.8928 494.923 73.5435 493.939L68.8898 503.229C69.3929 503.949 70.0847 504.31 70.9651 504.31Z" fill="url(#paint20_linear_122_130)" fill-opacity="0.6"/>
<path d="M70.9651 514.511C72.4604 514.511 73.5924 515.141 74.361 516.402C75.1436 517.649 75.5349 519.464 75.5349 521.847C75.5349 524.23 75.1436 526.052 74.361 527.312C73.5924 528.573 72.4604 529.204 70.9651 529.204C69.4838 529.204 68.3518 528.573 67.5692 527.312C66.7866 526.052 66.3953 524.23 66.3953 521.847C66.3953 519.478 66.7866 517.663 67.5692 516.402C68.3518 515.141 69.4838 514.511 70.9651 514.511ZM67.8836 521.847C67.8836 523.537 68.0374 524.86 68.3448 525.816L72.9985 516.61C72.5093 515.958 71.8315 515.633 70.9651 515.633C70.0008 515.633 69.2462 516.145 68.7012 517.171C68.1561 518.182 67.8836 519.741 67.8836 521.847ZM70.9651 528.061C71.9433 528.061 72.705 527.555 73.25 526.543C73.795 525.518 74.0675 523.953 74.0675 521.847C74.0675 520.059 73.8928 518.674 73.5435 517.69L68.8898 526.98C69.3929 527.7 70.0847 528.061 70.9651 528.061Z" fill="url(#paint21_linear_122_130)" fill-opacity="0.6"/>
<path d="M72.2228 551.645H75.3043V552.747H67.3176V551.645H70.8812V539.966L67.4853 541.982L66.8984 541.046L71.0909 538.469H72.2228V551.645Z" fill="url(#paint22_linear_122_130)" fill-opacity="0.6"/>
<path d="M70.9651 562.013C72.4604 562.013 73.5924 562.643 74.361 563.904C75.1436 565.151 75.5349 566.966 75.5349 569.349C75.5349 571.732 75.1436 573.554 74.361 574.815C73.5924 576.075 72.4604 576.706 70.9651 576.706C69.4838 576.706 68.3518 576.075 67.5692 574.815C66.7866 573.554 66.3953 571.732 66.3953 569.349C66.3953 566.98 66.7866 565.165 67.5692 563.904C68.3518 562.643 69.4838 562.013 70.9651 562.013ZM67.8836 569.349C67.8836 571.039 68.0374 572.362 68.3448 573.318L72.9985 564.112C72.5093 563.461 71.8315 563.135 70.9651 563.135C70.0008 563.135 69.2462 563.648 68.7012 564.673C68.1561 565.684 67.8836 567.243 67.8836 569.349ZM70.9651 575.563C71.9433 575.563 72.705 575.057 73.25 574.046C73.795 573.02 74.0675 571.455 74.0675 569.349C74.0675 567.562 73.8928 566.176 73.5435 565.192L68.8898 574.482C69.3929 575.202 70.0847 575.563 70.9651 575.563Z" fill="url(#paint23_linear_122_130)" fill-opacity="0.6"/>
<path d="M72.2228 599.148H75.3043V600.249H67.3176V599.148H70.8812V587.468L67.4853 589.484L66.8984 588.549L71.0909 585.972H72.2228V599.148Z" fill="url(#paint24_linear_122_130)" fill-opacity="0.6"/>
<path d="M72.2228 622.899H75.3043V624H67.3176V622.899H70.8812V611.219L67.4853 613.235L66.8984 612.3L71.0909 609.723H72.2228V622.899Z" fill="url(#paint25_linear_122_130)" fill-opacity="0.6"/>
<path d="M12.5698 348.253C14.0651 348.253 15.1971 348.884 15.9657 350.144C16.7483 351.391 17.1396 353.206 17.1396 355.589C17.1396 357.972 16.7483 359.794 15.9657 361.055C15.1971 362.316 14.0651 362.946 12.5698 362.946C11.0885 362.946 9.95649 362.316 9.1739 361.055C8.3913 359.794 8 357.972 8 355.589C8 353.22 8.3913 351.405 9.1739 350.144C9.95649 348.884 11.0885 348.253 12.5698 348.253ZM9.48833 355.589C9.48833 357.28 9.64206 358.603 9.9495 359.559L14.6032 350.352C14.114 349.701 13.4363 349.375 12.5698 349.375C11.6055 349.375 10.8509 349.888 10.3059 350.913C9.76084 351.925 9.48833 353.483 9.48833 355.589ZM12.5698 361.803C13.5481 361.803 14.3097 361.297 14.8547 360.286C15.3997 359.261 15.6722 357.695 15.6722 355.589C15.6722 353.802 15.4976 352.417 15.1482 351.433L10.4945 360.722C10.9976 361.443 11.6894 361.803 12.5698 361.803Z" fill="url(#paint26_linear_122_130)" fill-opacity="0.6"/>
<path d="M12.5698 372.004C14.0651 372.004 15.1971 372.635 15.9657 373.895C16.7483 375.142 17.1396 376.957 17.1396 379.34C17.1396 381.723 16.7483 383.545 15.9657 384.806C15.1971 386.067 14.0651 386.697 12.5698 386.697C11.0885 386.697 9.95649 386.067 9.1739 384.806C8.3913 383.545 8 381.723 8 379.34C8 376.971 8.3913 375.156 9.1739 373.895C9.95649 372.635 11.0885 372.004 12.5698 372.004ZM9.48833 379.34C9.48833 381.031 9.64206 382.354 9.9495 383.31L14.6032 374.103C14.114 373.452 13.4363 373.126 12.5698 373.126C11.6055 373.126 10.8509 373.639 10.3059 374.664C9.76084 375.676 9.48833 377.234 9.48833 379.34ZM12.5698 385.554C13.5481 385.554 14.3097 385.049 14.8547 384.037C15.3997 383.012 15.6722 381.446 15.6722 379.34C15.6722 377.553 15.4976 376.168 15.1482 375.184L10.4945 384.474C10.9976 385.194 11.6894 385.554 12.5698 385.554Z" fill="url(#paint27_linear_122_130)" fill-opacity="0.6"/>
<path d="M13.8276 409.139H16.909V410.24H8.92235V409.139H12.486V397.459L9.09005 399.475L8.5031 398.54L12.6956 395.963H13.8276V409.139Z" fill="url(#paint28_linear_122_130)" fill-opacity="0.6"/>
<path d="M12.5698 419.506C14.0651 419.506 15.1971 420.137 15.9657 421.398C16.7483 422.644 17.1396 424.459 17.1396 426.842C17.1396 429.225 16.7483 431.047 15.9657 432.308C15.1971 433.569 14.0651 434.199 12.5698 434.199C11.0885 434.199 9.95649 433.569 9.1739 432.308C8.3913 431.047 8 429.225 8 426.842C8 424.473 8.3913 422.658 9.1739 421.398C9.95649 420.137 11.0885 419.506 12.5698 419.506ZM9.48833 426.842C9.48833 428.533 9.64206 429.856 9.9495 430.812L14.6032 421.605C14.114 420.954 13.4363 420.629 12.5698 420.629C11.6055 420.629 10.8509 421.141 10.3059 422.166C9.76084 423.178 9.48833 424.737 9.48833 426.842ZM12.5698 433.056C13.5481 433.056 14.3097 432.551 14.8547 431.539C15.3997 430.514 15.6722 428.948 15.6722 426.842C15.6722 425.055 15.4976 423.67 15.1482 422.686L10.4945 431.976C10.9976 432.696 11.6894 433.056 12.5698 433.056Z" fill="url(#paint29_linear_122_130)" fill-opacity="0.6"/>
<path d="M13.8276 456.641H16.909V457.743H8.92235V456.641H12.486V444.962L9.09005 446.977L8.5031 446.042L12.6956 443.465H13.8276V456.641Z" fill="url(#paint30_linear_122_130)" fill-opacity="0.6"/>
<path d="M13.8276 480.392H16.909V481.494H8.92235V480.392H12.486V468.713L9.09005 470.728L8.5031 469.793L12.6956 467.216H13.8276V480.392Z" fill="url(#paint31_linear_122_130)" fill-opacity="0.6"/>
<path d="M52.7577 314.135H55.8392V315.236H47.8525V314.135H51.4162V302.455L48.0202 304.471L47.4333 303.536L51.6258 300.959H52.7577V314.135Z" fill="url(#paint32_linear_122_130)" fill-opacity="0.6"/>
<path d="M51.5 324.502C52.9953 324.502 54.1273 325.133 54.8959 326.393C55.6785 327.64 56.0698 329.455 56.0698 331.838C56.0698 334.221 55.6785 336.043 54.8959 337.304C54.1273 338.565 52.9953 339.195 51.5 339.195C50.0187 339.195 48.8867 338.565 48.1041 337.304C47.3215 336.043 46.9302 334.221 46.9302 331.838C46.9302 329.469 47.3215 327.654 48.1041 326.393C48.8867 325.133 50.0187 324.502 51.5 324.502ZM48.4185 331.838C48.4185 333.529 48.5723 334.852 48.8797 335.808L53.5334 326.601C53.0442 325.95 52.3664 325.624 51.5 325.624C50.5357 325.624 49.7811 326.137 49.2361 327.162C48.691 328.174 48.4185 329.732 48.4185 331.838ZM51.5 338.052C52.4782 338.052 53.2399 337.546 53.7849 336.535C54.3299 335.51 54.6024 333.944 54.6024 331.838C54.6024 330.051 54.4277 328.665 54.0784 327.682L49.4247 336.971C49.9278 337.692 50.6196 338.052 51.5 338.052Z" fill="url(#paint33_linear_122_130)" fill-opacity="0.6"/>
<path d="M52.7577 361.637H55.8392V362.738H47.8525V361.637H51.4162V349.957L48.0202 351.973L47.4333 351.038L51.6258 348.461H52.7577V361.637Z" fill="url(#paint34_linear_122_130)" fill-opacity="0.6"/>
<path d="M52.7577 385.388H55.8392V386.489H47.8525V385.388H51.4162V373.708L48.0202 375.724L47.4333 374.789L51.6258 372.212H52.7577V385.388Z" fill="url(#paint35_linear_122_130)" fill-opacity="0.6"/>
<path d="M51.5 395.755C52.9953 395.755 54.1273 396.386 54.8959 397.646C55.6785 398.893 56.0698 400.708 56.0698 403.091C56.0698 405.474 55.6785 407.296 54.8959 408.557C54.1273 409.818 52.9953 410.448 51.5 410.448C50.0187 410.448 48.8867 409.818 48.1041 408.557C47.3215 407.296 46.9302 405.474 46.9302 403.091C46.9302 400.722 47.3215 398.907 48.1041 397.646C48.8867 396.386 50.0187 395.755 51.5 395.755ZM48.4185 403.091C48.4185 404.782 48.5723 406.105 48.8797 407.061L53.5334 397.854C53.0442 397.203 52.3664 396.878 51.5 396.878C50.5357 396.878 49.7811 397.39 49.2361 398.415C48.691 399.427 48.4185 400.985 48.4185 403.091ZM51.5 409.305C52.4782 409.305 53.2399 408.8 53.7849 407.788C54.3299 406.763 54.6024 405.197 54.6024 403.091C54.6024 401.304 54.4277 399.919 54.0784 398.935L49.4247 408.225C49.9278 408.945 50.6196 409.305 51.5 409.305Z" fill="url(#paint36_linear_122_130)" fill-opacity="0.6"/>
<path d="M52.7577 432.89H55.8392V433.992H47.8525V432.89H51.4162V421.21L48.0202 423.226L47.4333 422.291L51.6258 419.714H52.7577V432.89Z" fill="url(#paint37_linear_122_130)" fill-opacity="0.6"/>
<path d="M52.7577 456.641H55.8392V457.743H47.8525V456.641H51.4162V444.962L48.0202 446.977L47.4333 446.042L51.6258 443.465H52.7577V456.641Z" fill="url(#paint38_linear_122_130)" fill-opacity="0.6"/>
<path d="M51.5 467.008C52.9953 467.008 54.1273 467.639 54.8959 468.9C55.6785 470.147 56.0698 471.962 56.0698 474.345C56.0698 476.728 55.6785 478.549 54.8959 479.81C54.1273 481.071 52.9953 481.701 51.5 481.701C50.0187 481.701 48.8867 481.071 48.1041 479.81C47.3215 478.549 46.9302 476.728 46.9302 474.345C46.9302 471.975 47.3215 470.16 48.1041 468.9C48.8867 467.639 50.0187 467.008 51.5 467.008ZM48.4185 474.345C48.4185 476.035 48.5723 477.358 48.8797 478.314L53.5334 469.107C53.0442 468.456 52.3664 468.131 51.5 468.131C50.5357 468.131 49.7811 468.643 49.2361 469.669C48.691 470.68 48.4185 472.239 48.4185 474.345ZM51.5 480.558C52.4782 480.558 53.2399 480.053 53.7849 479.041C54.3299 478.016 54.6024 476.451 54.6024 474.345C54.6024 472.557 54.4277 471.172 54.0784 470.188L49.4247 479.478C49.9278 480.198 50.6196 480.558 51.5 480.558Z" fill="url(#paint39_linear_122_130)" fill-opacity="0.6"/>
<path d="M52.7577 504.143H55.8392V505.245H47.8525V504.143H51.4162V492.464L48.0202 494.48L47.4333 493.544L51.6258 490.967H52.7577V504.143Z" fill="url(#paint40_linear_122_130)" fill-opacity="0.6"/>
<path d="M51.5 514.511C52.9953 514.511 54.1273 515.141 54.8959 516.402C55.6785 517.649 56.0698 519.464 56.0698 521.847C56.0698 524.23 55.6785 526.052 54.8959 527.312C54.1273 528.573 52.9953 529.204 51.5 529.204C50.0187 529.204 48.8867 528.573 48.1041 527.312C47.3215 526.052 46.9302 524.23 46.9302 521.847C46.9302 519.478 47.3215 517.663 48.1041 516.402C48.8867 515.141 50.0187 514.511 51.5 514.511ZM48.4185 521.847C48.4185 523.537 48.5723 524.86 48.8797 525.816L53.5334 516.61C53.0442 515.958 52.3664 515.633 51.5 515.633C50.5357 515.633 49.7811 516.145 49.2361 517.171C48.691 518.182 48.4185 519.741 48.4185 521.847ZM51.5 528.061C52.4782 528.061 53.2399 527.555 53.7849 526.543C54.3299 525.518 54.6024 523.953 54.6024 521.847C54.6024 520.059 54.4277 518.674 54.0784 517.69L49.4247 526.98C49.9278 527.7 50.6196 528.061 51.5 528.061Z" fill="url(#paint41_linear_122_130)" fill-opacity="0.6"/>
<path d="M90.4302 300.751C91.9255 300.751 93.0575 301.381 93.8261 302.642C94.6087 303.889 95 305.704 95 308.087C95 310.47 94.6087 312.292 93.8261 313.553C93.0575 314.814 91.9255 315.444 90.4302 315.444C88.9489 315.444 87.8169 314.814 87.0343 313.553C86.2517 312.292 85.8604 310.47 85.8604 308.087C85.8604 305.718 86.2517 303.903 87.0343 302.642C87.8169 301.381 88.9489 300.751 90.4302 300.751ZM87.3487 308.087C87.3487 309.777 87.5024 311.101 87.8099 312.057L92.4636 302.85C91.9744 302.199 91.2966 301.873 90.4302 301.873C89.4659 301.873 88.7113 302.386 88.1663 303.411C87.6212 304.423 87.3487 305.981 87.3487 308.087ZM90.4302 314.301C91.4084 314.301 92.1701 313.795 92.7151 312.784C93.2601 311.759 93.5326 310.193 93.5326 308.087C93.5326 306.3 93.3579 304.914 93.0086 303.931L88.3549 313.22C88.858 313.941 89.5498 314.301 90.4302 314.301Z" fill="url(#paint42_linear_122_130)" fill-opacity="0.6"/>
<path d="M91.6879 337.886H94.7694V338.987H86.7827V337.886H90.3463V326.206L86.9504 328.222L86.3635 327.287L90.556 324.71H91.6879V337.886Z" fill="url(#paint43_linear_122_130)" fill-opacity="0.6"/>
<path d="M91.6879 361.637H94.7694V362.738H86.7827V361.637H90.3463V349.957L86.9504 351.973L86.3635 351.038L90.556 348.461H91.6879V361.637Z" fill="url(#paint44_linear_122_130)" fill-opacity="0.6"/>
<path d="M90.4302 372.004C91.9255 372.004 93.0575 372.635 93.8261 373.895C94.6087 375.142 95 376.957 95 379.34C95 381.723 94.6087 383.545 93.8261 384.806C93.0575 386.067 91.9255 386.697 90.4302 386.697C88.9489 386.697 87.8169 386.067 87.0343 384.806C86.2517 383.545 85.8604 381.723 85.8604 379.34C85.8604 376.971 86.2517 375.156 87.0343 373.895C87.8169 372.635 88.9489 372.004 90.4302 372.004ZM87.3487 379.34C87.3487 381.031 87.5024 382.354 87.8099 383.31L92.4636 374.103C91.9744 373.452 91.2966 373.126 90.4302 373.126C89.4659 373.126 88.7113 373.639 88.1663 374.664C87.6212 375.676 87.3487 377.234 87.3487 379.34ZM90.4302 385.554C91.4084 385.554 92.1701 385.049 92.7151 384.037C93.2601 383.012 93.5326 381.446 93.5326 379.34C93.5326 377.553 93.3579 376.168 93.0086 375.184L88.3549 384.474C88.858 385.194 89.5498 385.554 90.4302 385.554Z" fill="url(#paint45_linear_122_130)" fill-opacity="0.6"/>
<path d="M90.4302 395.755C91.9255 395.755 93.0575 396.386 93.8261 397.646C94.6087 398.893 95 400.708 95 403.091C95 405.474 94.6087 407.296 93.8261 408.557C93.0575 409.818 91.9255 410.448 90.4302 410.448C88.9489 410.448 87.8169 409.818 87.0343 408.557C86.2517 407.296 85.8604 405.474 85.8604 403.091C85.8604 400.722 86.2517 398.907 87.0343 397.646C87.8169 396.386 88.9489 395.755 90.4302 395.755ZM87.3487 403.091C87.3487 404.782 87.5024 406.105 87.8099 407.061L92.4636 397.854C91.9744 397.203 91.2966 396.878 90.4302 396.878C89.4659 396.878 88.7113 397.39 88.1663 398.415C87.6212 399.427 87.3487 400.985 87.3487 403.091ZM90.4302 409.305C91.4084 409.305 92.1701 408.8 92.7151 407.788C93.2601 406.763 93.5326 405.197 93.5326 403.091C93.5326 401.304 93.3579 399.919 93.0086 398.935L88.3549 408.225C88.858 408.945 89.5498 409.305 90.4302 409.305Z" fill="url(#paint46_linear_122_130)" fill-opacity="0.6"/>
<g opacity="0.6">
<path d="M918.93 -23C920.356 -23 921.436 -22.395 922.17 -21.1851C922.916 -19.9885 923.29 -18.2468 923.29 -15.9599C923.29 -13.673 922.916 -11.9246 922.17 -10.7147C921.436 -9.50476 920.356 -8.8998 918.93 -8.8998C917.517 -8.8998 916.437 -9.50476 915.69 -10.7147C914.943 -11.9246 914.57 -13.673 914.57 -15.9599C914.57 -18.2335 914.943 -19.9752 915.69 -21.1851C916.437 -22.395 917.517 -23 918.93 -23ZM915.99 -15.9599C915.99 -14.3378 916.137 -13.068 916.43 -12.1506L920.87 -20.9857C920.403 -21.6106 919.756 -21.923 918.93 -21.923C918.01 -21.923 917.29 -21.4311 916.77 -20.4472C916.25 -19.4766 915.99 -17.9808 915.99 -15.9599ZM918.93 -9.99671C919.863 -9.99671 920.59 -10.482 921.11 -11.4526C921.63 -12.4365 921.89 -13.9389 921.89 -15.9599C921.89 -17.675 921.723 -19.0046 921.39 -19.9486L916.95 -11.0338C917.43 -10.3424 918.09 -9.99671 918.93 -9.99671Z" fill="url(#paint47_linear_122_130)"/>
<path d="M920.13 12.6365H923.07V13.6936H915.45V12.6365H918.85V1.42819L915.61 3.36273L915.05 2.46526L919.05 -0.00776117H920.13V12.6365Z" fill="url(#paint48_linear_122_130)"/>
<path d="M918.93 22.5856C920.356 22.5856 921.436 23.1906 922.17 24.4005C922.916 25.5971 923.29 27.3389 923.29 29.6257C923.29 31.9126 922.916 33.661 922.17 34.8709C921.436 36.0808 920.356 36.6858 918.93 36.6858C917.517 36.6858 916.437 36.0808 915.69 34.8709C914.943 33.661 914.57 31.9126 914.57 29.6257C914.57 27.3522 914.943 25.6104 915.69 24.4005C916.437 23.1906 917.517 22.5856 918.93 22.5856ZM915.99 29.6257C915.99 31.2478 916.137 32.5176 916.43 33.435L920.87 24.5999C920.403 23.975 919.756 23.6626 918.93 23.6626C918.01 23.6626 917.29 24.1545 916.77 25.1384C916.25 26.109 915.99 27.6048 915.99 29.6257ZM918.93 35.5889C919.863 35.5889 920.59 35.1036 921.11 34.133C921.63 33.1491 921.89 31.6467 921.89 29.6257C921.89 27.9106 921.723 26.581 921.39 25.637L916.95 34.5518C917.43 35.2432 918.09 35.5889 918.93 35.5889Z" fill="url(#paint49_linear_122_130)"/>
<path d="M920.13 58.2221H923.07V59.2792H915.45V58.2221H918.85V47.0138L915.61 48.9483L915.05 48.0509L919.05 45.5778H920.13V58.2221Z" fill="url(#paint50_linear_122_130)"/>
<path d="M920.13 81.015H923.07V82.072H915.45V81.015H918.85V69.8066L915.61 71.7411L915.05 70.8437L919.05 68.3706H920.13V81.015Z" fill="url(#paint51_linear_122_130)"/>
<path d="M918.93 90.964C920.356 90.964 921.436 91.569 922.17 92.7789C922.916 93.9755 923.29 95.7173 923.29 98.0041C923.29 100.291 922.916 102.039 922.17 103.249C921.436 104.459 920.356 105.064 918.93 105.064C917.517 105.064 916.437 104.459 915.69 103.249C914.943 102.039 914.57 100.291 914.57 98.0041C914.57 95.7306 914.943 93.9888 915.69 92.7789C916.437 91.569 917.517 90.964 918.93 90.964ZM915.99 98.0041C915.99 99.6262 916.137 100.896 916.43 101.813L920.87 92.9783C920.403 92.3534 919.756 92.041 918.93 92.041C918.01 92.041 917.29 92.5329 916.77 93.5168C916.25 94.4874 915.99 95.9832 915.99 98.0041ZM918.93 103.967C919.863 103.967 920.59 103.482 921.11 102.511C921.63 101.528 921.89 100.025 921.89 98.0041C921.89 96.289 921.723 94.9594 921.39 94.0154L916.95 102.93C917.43 103.622 918.09 103.967 918.93 103.967Z" fill="url(#paint52_linear_122_130)"/>
<path d="M920.13 126.601H923.07V127.658H915.45V126.601H918.85V115.392L915.61 117.327L915.05 116.429L919.05 113.956H920.13V126.601Z" fill="url(#paint53_linear_122_130)"/>
<path d="M918.93 136.55C920.356 136.55 921.436 137.155 922.17 138.365C922.916 139.561 923.29 141.303 923.29 143.59C923.29 145.877 922.916 147.625 922.17 148.835C921.436 150.045 920.356 150.65 918.93 150.65C917.517 150.65 916.437 150.045 915.69 148.835C914.943 147.625 914.57 145.877 914.57 143.59C914.57 141.316 914.943 139.574 915.69 138.365C916.437 137.155 917.517 136.55 918.93 136.55ZM915.99 143.59C915.99 145.212 916.137 146.482 916.43 147.399L920.87 138.564C920.403 137.939 919.756 137.627 918.93 137.627C918.01 137.627 917.29 138.119 916.77 139.102C916.25 140.073 915.99 141.569 915.99 143.59ZM918.93 149.553C919.863 149.553 920.59 149.068 921.11 148.097C921.63 147.113 921.89 145.611 921.89 143.59C921.89 141.875 921.723 140.545 921.39 139.601L916.95 148.516C917.43 149.207 918.09 149.553 918.93 149.553Z" fill="url(#paint54_linear_122_130)"/>
<path d="M918.93 159.342C920.356 159.342 921.436 159.947 922.17 161.157C922.916 162.354 923.29 164.096 923.29 166.383C923.29 168.669 922.916 170.418 922.17 171.628C921.436 172.838 920.356 173.443 918.93 173.443C917.517 173.443 916.437 172.838 915.69 171.628C914.943 170.418 914.57 168.669 914.57 166.383C914.57 164.109 914.943 162.367 915.69 161.157C916.437 159.947 917.517 159.342 918.93 159.342ZM915.99 166.383C915.99 168.005 916.137 169.274 916.43 170.192L920.87 161.357C920.403 160.732 919.756 160.419 918.93 160.419C918.01 160.419 917.29 160.911 916.77 161.895C916.25 162.866 915.99 164.362 915.99 166.383ZM918.93 172.346C919.863 172.346 920.59 171.86 921.11 170.89C921.63 169.906 921.89 168.404 921.89 166.383C921.89 164.667 921.723 163.338 921.39 162.394L916.95 171.309C917.43 172 918.09 172.346 918.93 172.346Z" fill="url(#paint55_linear_122_130)"/>
<path d="M920.13 194.979H923.07V196.036H915.45V194.979H918.85V183.771L915.61 185.705L915.05 184.808L919.05 182.335H920.13V194.979Z" fill="url(#paint56_linear_122_130)"/>
<path d="M918.93 204.928C920.356 204.928 921.436 205.533 922.17 206.743C922.916 207.94 923.29 209.681 923.29 211.968C923.29 214.255 922.916 216.003 922.17 217.213C921.436 218.423 920.356 219.028 918.93 219.028C917.517 219.028 916.437 218.423 915.69 217.213C914.943 216.003 914.57 214.255 914.57 211.968C914.57 209.695 914.943 207.953 915.69 206.743C916.437 205.533 917.517 204.928 918.93 204.928ZM915.99 211.968C915.99 213.59 916.137 214.86 916.43 215.777L920.87 206.942C920.403 206.317 919.756 206.005 918.93 206.005C918.01 206.005 917.29 206.497 916.77 207.481C916.25 208.451 915.99 209.947 915.99 211.968ZM918.93 217.931C919.863 217.931 920.59 217.446 921.11 216.475C921.63 215.492 921.89 213.989 921.89 211.968C921.89 210.253 921.723 208.923 921.39 207.979L916.95 216.894C917.43 217.586 918.09 217.931 918.93 217.931Z" fill="url(#paint57_linear_122_130)"/>
<path d="M920.13 240.565H923.07V241.622H915.45V240.565H918.85V229.356L915.61 231.291L915.05 230.393L919.05 227.92H920.13V240.565Z" fill="url(#paint58_linear_122_130)"/>
<path d="M920.13 263.357H923.07V264.414H915.45V263.357H918.85V252.149L915.61 254.084L915.05 253.186L919.05 250.713H920.13V263.357Z" fill="url(#paint59_linear_122_130)"/>
<path d="M956.07 22.5856C957.497 22.5856 958.577 23.1906 959.31 24.4005C960.057 25.5971 960.43 27.3389 960.43 29.6257C960.43 31.9126 960.057 33.661 959.31 34.8709C958.577 36.0808 957.497 36.6858 956.07 36.6858C954.657 36.6858 953.577 36.0808 952.83 34.8709C952.084 33.661 951.71 31.9126 951.71 29.6257C951.71 27.3522 952.084 25.6104 952.83 24.4005C953.577 23.1906 954.657 22.5856 956.07 22.5856ZM953.13 29.6257C953.13 31.2478 953.277 32.5176 953.57 33.435L958.01 24.5999C957.543 23.975 956.897 23.6626 956.07 23.6626C955.15 23.6626 954.43 24.1545 953.91 25.1384C953.39 26.109 953.13 27.6048 953.13 29.6257ZM956.07 35.5889C957.003 35.5889 957.73 35.1036 958.25 34.133C958.77 33.1491 959.03 31.6467 959.03 29.6257C959.03 27.9106 958.863 26.581 958.53 25.637L954.09 34.5518C954.57 35.2432 955.23 35.5889 956.07 35.5889Z" fill="url(#paint60_linear_122_130)"/>
<path d="M957.27 58.2221H960.21V59.2792H952.59V58.2221H955.99V47.0138L952.75 48.9483L952.19 48.0509L956.19 45.5778H957.27V58.2221Z" fill="url(#paint61_linear_122_130)"/>
<path d="M956.07 68.1712C957.497 68.1712 958.577 68.7762 959.31 69.9861C960.057 71.1827 960.43 72.9245 960.43 75.2113C960.43 77.4982 960.057 79.2466 959.31 80.4565C958.577 81.6664 957.497 82.2714 956.07 82.2714C954.657 82.2714 953.577 81.6664 952.83 80.4565C952.084 79.2466 951.71 77.4982 951.71 75.2113C951.71 72.9378 952.084 71.196 952.83 69.9861C953.577 68.7762 954.657 68.1712 956.07 68.1712ZM953.13 75.2113C953.13 76.8334 953.277 78.1032 953.57 79.0206L958.01 70.1855C957.543 69.5606 956.897 69.2482 956.07 69.2482C955.15 69.2482 954.43 69.7401 953.91 70.724C953.39 71.6946 953.13 73.1904 953.13 75.2113ZM956.07 81.1745C957.003 81.1745 957.73 80.6892 958.25 79.7186C958.77 78.7347 959.03 77.2323 959.03 75.2113C959.03 73.4962 958.863 72.1666 958.53 71.2226L954.09 80.1374C954.57 80.8288 955.23 81.1745 956.07 81.1745Z" fill="url(#paint62_linear_122_130)"/>
<path d="M956.07 90.964C957.497 90.964 958.577 91.569 959.31 92.7789C960.057 93.9755 960.43 95.7173 960.43 98.0041C960.43 100.291 960.057 102.039 959.31 103.249C958.577 104.459 957.497 105.064 956.07 105.064C954.657 105.064 953.577 104.459 952.83 103.249C952.084 102.039 951.71 100.291 951.71 98.0041C951.71 95.7306 952.084 93.9888 952.83 92.7789C953.577 91.569 954.657 90.964 956.07 90.964ZM953.13 98.0041C953.13 99.6262 953.277 100.896 953.57 101.813L958.01 92.9783C957.543 92.3534 956.897 92.041 956.07 92.041C955.15 92.041 954.43 92.5329 953.91 93.5168C953.39 94.4874 953.13 95.9832 953.13 98.0041ZM956.07 103.967C957.003 103.967 957.73 103.482 958.25 102.511C958.77 101.528 959.03 100.025 959.03 98.0041C959.03 96.289 958.863 94.9594 958.53 94.0154L954.09 102.93C954.57 103.622 955.23 103.967 956.07 103.967Z" fill="url(#paint63_linear_122_130)"/>
<path d="M957.27 126.601H960.21V127.658H952.59V126.601H955.99V115.392L952.75 117.327L952.19 116.429L956.19 113.956H957.27V126.601Z" fill="url(#paint64_linear_122_130)"/>
<path d="M956.07 136.55C957.497 136.55 958.577 137.155 959.31 138.365C960.057 139.561 960.43 141.303 960.43 143.59C960.43 145.877 960.057 147.625 959.31 148.835C958.577 150.045 957.497 150.65 956.07 150.65C954.657 150.65 953.577 150.045 952.83 148.835C952.084 147.625 951.71 145.877 951.71 143.59C951.71 141.316 952.084 139.574 952.83 138.365C953.577 137.155 954.657 136.55 956.07 136.55ZM953.13 143.59C953.13 145.212 953.277 146.482 953.57 147.399L958.01 138.564C957.543 137.939 956.897 137.627 956.07 137.627C955.15 137.627 954.43 138.119 953.91 139.102C953.39 140.073 953.13 141.569 953.13 143.59ZM956.07 149.553C957.003 149.553 957.73 149.068 958.25 148.097C958.77 147.113 959.03 145.611 959.03 143.59C959.03 141.875 958.863 140.545 958.53 139.601L954.09 148.516C954.57 149.207 955.23 149.553 956.07 149.553Z" fill="url(#paint65_linear_122_130)"/>
<path d="M957.27 172.186H960.21V173.243H952.59V172.186H955.99V160.978L952.75 162.912L952.19 162.015L956.19 159.542H957.27V172.186Z" fill="url(#paint66_linear_122_130)"/>
<path d="M956.07 182.135C957.497 182.135 958.577 182.74 959.31 183.95C960.057 185.147 960.43 186.888 960.43 189.175C960.43 191.462 960.057 193.211 959.31 194.421C958.577 195.63 957.497 196.235 956.07 196.235C954.657 196.235 953.577 195.63 952.83 194.421C952.084 193.211 951.71 191.462 951.71 189.175C951.71 186.902 952.084 185.16 952.83 183.95C953.577 182.74 954.657 182.135 956.07 182.135ZM953.13 189.175C953.13 190.797 953.277 192.067 953.57 192.985L958.01 184.15C957.543 183.525 956.897 183.212 956.07 183.212C955.15 183.212 954.43 183.704 953.91 184.688C953.39 185.659 953.13 187.154 953.13 189.175ZM956.07 195.139C957.003 195.139 957.73 194.653 958.25 193.683C958.77 192.699 959.03 191.196 959.03 189.175C959.03 187.46 958.863 186.131 958.53 185.187L954.09 194.101C954.57 194.793 955.23 195.139 956.07 195.139Z" fill="url(#paint67_linear_122_130)"/>
<path d="M956.07 204.928C957.497 204.928 958.577 205.533 959.31 206.743C960.057 207.94 960.43 209.681 960.43 211.968C960.43 214.255 960.057 216.003 959.31 217.213C958.577 218.423 957.497 219.028 956.07 219.028C954.657 219.028 953.577 218.423 952.83 217.213C952.084 216.003 951.71 214.255 951.71 211.968C951.71 209.695 952.084 207.953 952.83 206.743C953.577 205.533 954.657 204.928 956.07 204.928ZM953.13 211.968C953.13 213.59 953.277 214.86 953.57 215.777L958.01 206.942C957.543 206.317 956.897 206.005 956.07 206.005C955.15 206.005 954.43 206.497 953.91 207.481C953.39 208.451 953.13 209.947 953.13 211.968ZM956.07 217.931C957.003 217.931 957.73 217.446 958.25 216.475C958.77 215.492 959.03 213.989 959.03 211.968C959.03 210.253 958.863 208.923 958.53 207.979L954.09 216.894C954.57 217.586 955.23 217.931 956.07 217.931Z" fill="url(#paint68_linear_122_130)"/>
<path d="M957.27 240.565H960.21V241.622H952.59V240.565H955.99V229.356L952.75 231.291L952.19 230.393L956.19 227.92H957.27V240.565Z" fill="url(#paint69_linear_122_130)"/>
<path d="M956.07 250.514C957.497 250.514 958.577 251.119 959.31 252.329C960.057 253.525 960.43 255.267 960.43 257.554C960.43 259.841 960.057 261.589 959.31 262.799C958.577 264.009 957.497 264.614 956.07 264.614C954.657 264.614 953.577 264.009 952.83 262.799C952.084 261.589 951.71 259.841 951.71 257.554C951.71 255.28 952.084 253.538 952.83 252.329C953.577 251.119 954.657 250.514 956.07 250.514ZM953.13 257.554C953.13 259.176 953.277 260.446 953.57 261.363L958.01 252.528C957.543 251.903 956.897 251.591 956.07 251.591C955.15 251.591 954.43 252.083 953.91 253.066C953.39 254.037 953.13 255.533 953.13 257.554ZM956.07 263.517C957.003 263.517 957.73 263.032 958.25 262.061C958.77 261.077 959.03 259.575 959.03 257.554C959.03 255.839 958.863 254.509 958.53 253.565L954.09 262.48C954.57 263.171 955.23 263.517 956.07 263.517Z" fill="url(#paint70_linear_122_130)"/>
<path d="M957.27 286.15H960.21V287.207H952.59V286.15H955.99V274.942L952.75 276.876L952.19 275.979L956.19 273.506H957.27V286.15Z" fill="url(#paint71_linear_122_130)"/>
<path d="M957.27 308.943H960.21V310H952.59V308.943H955.99V297.735L952.75 299.669L952.19 298.772L956.19 296.299H957.27V308.943Z" fill="url(#paint72_linear_122_130)"/>
<path d="M900.36 45.3784C901.786 45.3784 902.866 45.9834 903.599 47.1933C904.346 48.3899 904.719 50.1317 904.719 52.4185C904.719 54.7054 904.346 56.4538 903.599 57.6637C902.866 58.8736 901.786 59.4786 900.36 59.4786C898.946 59.4786 897.867 58.8736 897.12 57.6637C896.373 56.4538 896 54.7054 896 52.4185C896 50.145 896.373 48.4032 897.12 47.1933C897.867 45.9834 898.946 45.3784 900.36 45.3784ZM897.42 52.4185C897.42 54.0406 897.567 55.3104 897.86 56.2278L902.3 47.3927C901.833 46.7678 901.186 46.4554 900.36 46.4554C899.44 46.4554 898.72 46.9473 898.2 47.9312C897.68 48.9018 897.42 50.3976 897.42 52.4185ZM900.36 58.3817C901.293 58.3817 902.02 57.8964 902.54 56.9258C903.06 55.9419 903.319 54.4395 903.319 52.4185C903.319 50.7034 903.153 49.3738 902.82 48.4298L898.38 57.3446C898.86 58.036 899.52 58.3817 900.36 58.3817Z" fill="url(#paint73_linear_122_130)"/>
<path d="M900.36 68.1712C901.786 68.1712 902.866 68.7762 903.599 69.9861C904.346 71.1827 904.719 72.9245 904.719 75.2113C904.719 77.4982 904.346 79.2466 903.599 80.4565C902.866 81.6664 901.786 82.2714 900.36 82.2714C898.946 82.2714 897.867 81.6664 897.12 80.4565C896.373 79.2466 896 77.4982 896 75.2113C896 72.9378 896.373 71.196 897.12 69.9861C897.867 68.7762 898.946 68.1712 900.36 68.1712ZM897.42 75.2113C897.42 76.8334 897.567 78.1032 897.86 79.0206L902.3 70.1855C901.833 69.5606 901.186 69.2482 900.36 69.2482C899.44 69.2482 898.72 69.7401 898.2 70.724C897.68 71.6946 897.42 73.1904 897.42 75.2113ZM900.36 81.1745C901.293 81.1745 902.02 80.6892 902.54 79.7186C903.06 78.7347 903.319 77.2323 903.319 75.2113C903.319 73.4962 903.153 72.1666 902.82 71.2226L898.38 80.1374C898.86 80.8288 899.52 81.1745 900.36 81.1745Z" fill="url(#paint74_linear_122_130)"/>
<path d="M901.56 103.808H904.499V104.865H896.88V103.808H900.28V92.5994L897.04 94.5339L896.48 93.6365L900.48 91.1635H901.56V103.808Z" fill="url(#paint75_linear_122_130)"/>
<path d="M900.36 113.757C901.786 113.757 902.866 114.362 903.599 115.572C904.346 116.768 904.719 118.51 904.719 120.797C904.719 123.084 904.346 124.832 903.599 126.042C902.866 127.252 901.786 127.857 900.36 127.857C898.946 127.857 897.867 127.252 897.12 126.042C896.373 124.832 896 123.084 896 120.797C896 118.523 896.373 116.782 897.12 115.572C897.867 114.362 898.946 113.757 900.36 113.757ZM897.42 120.797C897.42 122.419 897.567 123.689 897.86 124.606L902.3 115.771C901.833 115.146 901.186 114.834 900.36 114.834C899.44 114.834 898.72 115.326 898.2 116.31C897.68 117.28 897.42 118.776 897.42 120.797ZM900.36 126.76C901.293 126.76 902.02 126.275 902.54 125.304C903.06 124.32 903.319 122.818 903.319 120.797C903.319 119.082 903.153 117.752 902.82 116.808L898.38 125.723C898.86 126.414 899.52 126.76 900.36 126.76Z" fill="url(#paint76_linear_122_130)"/>
<path d="M901.56 149.393H904.499V150.45H896.88V149.393H900.28V138.185L897.04 140.12L896.48 139.222L900.48 136.749H901.56V149.393Z" fill="url(#paint77_linear_122_130)"/>
<path d="M901.56 172.186H904.499V173.243H896.88V172.186H900.28V160.978L897.04 162.912L896.48 162.015L900.48 159.542H901.56V172.186Z" fill="url(#paint78_linear_122_130)"/>
<path d="M938.7 12.6365H941.64V13.6936H934.02V12.6365H937.42V1.42819L934.18 3.36273L933.62 2.46526L937.62 -0.00776117H938.7V12.6365Z" fill="url(#paint79_linear_122_130)"/>
<path d="M937.5 22.5856C938.927 22.5856 940.006 23.1906 940.74 24.4005C941.486 25.5971 941.86 27.3389 941.86 29.6257C941.86 31.9126 941.486 33.661 940.74 34.8709C940.006 36.0808 938.927 36.6858 937.5 36.6858C936.087 36.6858 935.007 36.0808 934.26 34.8709C933.514 33.661 933.14 31.9126 933.14 29.6257C933.14 27.3522 933.514 25.6104 934.26 24.4005C935.007 23.1906 936.087 22.5856 937.5 22.5856ZM934.56 29.6257C934.56 31.2478 934.707 32.5176 935 33.435L939.44 24.5999C938.973 23.975 938.327 23.6626 937.5 23.6626C936.58 23.6626 935.86 24.1545 935.34 25.1384C934.82 26.109 934.56 27.6048 934.56 29.6257ZM937.5 35.5889C938.433 35.5889 939.16 35.1036 939.68 34.133C940.2 33.1491 940.46 31.6467 940.46 29.6257C940.46 27.9106 940.293 26.581 939.96 25.637L935.52 34.5518C936 35.2432 936.66 35.5889 937.5 35.5889Z" fill="url(#paint80_linear_122_130)"/>
<path d="M938.7 58.2221H941.64V59.2792H934.02V58.2221H937.42V47.0138L934.18 48.9483L933.62 48.0509L937.62 45.5778H938.7V58.2221Z" fill="url(#paint81_linear_122_130)"/>
<path d="M938.7 81.015H941.64V82.072H934.02V81.015H937.42V69.8066L934.18 71.7411L933.62 70.8437L937.62 68.3706H938.7V81.015Z" fill="url(#paint82_linear_122_130)"/>
<path d="M937.5 90.964C938.927 90.964 940.006 91.569 940.74 92.7789C941.486 93.9755 941.86 95.7173 941.86 98.0041C941.86 100.291 941.486 102.039 940.74 103.249C940.006 104.459 938.927 105.064 937.5 105.064C936.087 105.064 935.007 104.459 934.26 103.249C933.514 102.039 933.14 100.291 933.14 98.0041C933.14 95.7306 933.514 93.9888 934.26 92.7789C935.007 91.569 936.087 90.964 937.5 90.964ZM934.56 98.0041C934.56 99.6262 934.707 100.896 935 101.813L939.44 92.9783C938.973 92.3534 938.327 92.041 937.5 92.041C936.58 92.041 935.86 92.5329 935.34 93.5168C934.82 94.4874 934.56 95.9832 934.56 98.0041ZM937.5 103.967C938.433 103.967 939.16 103.482 939.68 102.511C940.2 101.528 940.46 100.025 940.46 98.0041C940.46 96.289 940.293 94.9594 939.96 94.0154L935.52 102.93C936 103.622 936.66 103.967 937.5 103.967Z" fill="url(#paint83_linear_122_130)"/>
<path d="M938.7 126.601H941.64V127.658H934.02V126.601H937.42V115.392L934.18 117.327L933.62 116.429L937.62 113.956H938.7V126.601Z" fill="url(#paint84_linear_122_130)"/>
<path d="M938.7 149.393H941.64V150.45H934.02V149.393H937.42V138.185L934.18 140.12L933.62 139.222L937.62 136.749H938.7V149.393Z" fill="url(#paint85_linear_122_130)"/>
<path d="M937.5 159.342C938.927 159.342 940.006 159.947 940.74 161.157C941.486 162.354 941.86 164.096 941.86 166.383C941.86 168.669 941.486 170.418 940.74 171.628C940.006 172.838 938.927 173.443 937.5 173.443C936.087 173.443 935.007 172.838 934.26 171.628C933.514 170.418 933.14 168.669 933.14 166.383C933.14 164.109 933.514 162.367 934.26 161.157C935.007 159.947 936.087 159.342 937.5 159.342ZM934.56 166.383C934.56 168.005 934.707 169.274 935 170.192L939.44 161.357C938.973 160.732 938.327 160.419 937.5 160.419C936.58 160.419 935.86 160.911 935.34 161.895C934.82 162.866 934.56 164.362 934.56 166.383ZM937.5 172.346C938.433 172.346 939.16 171.86 939.68 170.89C940.2 169.906 940.46 168.404 940.46 166.383C940.46 164.667 940.293 163.338 939.96 162.394L935.52 171.309C936 172 936.66 172.346 937.5 172.346Z" fill="url(#paint86_linear_122_130)"/>
<path d="M938.7 194.979H941.64V196.036H934.02V194.979H937.42V183.771L934.18 185.705L933.62 184.808L937.62 182.335H938.7V194.979Z" fill="url(#paint87_linear_122_130)"/>
<path d="M937.5 204.928C938.927 204.928 940.006 205.533 940.74 206.743C941.486 207.94 941.86 209.681 941.86 211.968C941.86 214.255 941.486 216.003 940.74 217.213C940.006 218.423 938.927 219.028 937.5 219.028C936.087 219.028 935.007 218.423 934.26 217.213C933.514 216.003 933.14 214.255 933.14 211.968C933.14 209.695 933.514 207.953 934.26 206.743C935.007 205.533 936.087 204.928 937.5 204.928ZM934.56 211.968C934.56 213.59 934.707 214.86 935 215.777L939.44 206.942C938.973 206.317 938.327 206.005 937.5 206.005C936.58 206.005 935.86 206.497 935.34 207.481C934.82 208.451 934.56 209.947 934.56 211.968ZM937.5 217.931C938.433 217.931 939.16 217.446 939.68 216.475C940.2 215.492 940.46 213.989 940.46 211.968C940.46 210.253 940.293 208.923 939.96 207.979L935.52 216.894C936 217.586 936.66 217.931 937.5 217.931Z" fill="url(#paint88_linear_122_130)"/>
<path d="M974.64 -0.207197C976.067 -0.207197 977.147 0.397762 977.88 1.60768C978.627 2.8043 979 4.54605 979 6.83293C979 9.11981 978.627 10.8682 977.88 12.0781C977.147 13.288 976.067 13.893 974.64 13.893C973.227 13.893 972.147 13.288 971.401 12.0781C970.654 10.8682 970.281 9.11981 970.281 6.83293C970.281 4.55935 970.654 2.8176 971.401 1.60768C972.147 0.397762 973.227 -0.207197 974.64 -0.207197ZM971.7 6.83293C971.7 8.45502 971.847 9.72477 972.14 10.6422L976.58 1.80712C976.114 1.18221 975.467 0.869764 974.64 0.869764C973.72 0.869764 973 1.36171 972.48 2.3456C971.96 3.31619 971.7 4.81197 971.7 6.83293ZM974.64 12.7961C975.574 12.7961 976.3 12.3108 976.82 11.3402C977.34 10.3563 977.6 8.85389 977.6 6.83293C977.6 5.11777 977.433 3.78819 977.1 2.84419L972.66 11.759C973.14 12.4504 973.8 12.7961 974.64 12.7961Z" fill="url(#paint89_linear_122_130)"/>
<path d="M975.84 35.4293H978.78V36.4864H971.161V35.4293H974.56V24.221L971.321 26.1555L970.761 25.2581L974.76 22.785H975.84V35.4293Z" fill="url(#paint90_linear_122_130)"/>
<path d="M975.84 58.2221H978.78V59.2792H971.161V58.2221H974.56V47.0138L971.321 48.9483L970.761 48.0509L974.76 45.5778H975.84V58.2221Z" fill="url(#paint91_linear_122_130)"/>
<path d="M974.64 68.1712C976.067 68.1712 977.147 68.7762 977.88 69.9861C978.627 71.1827 979 72.9245 979 75.2113C979 77.4982 978.627 79.2466 977.88 80.4565C977.147 81.6664 976.067 82.2714 974.64 82.2714C973.227 82.2714 972.147 81.6664 971.401 80.4565C970.654 79.2466 970.281 77.4982 970.281 75.2113C970.281 72.9378 970.654 71.196 971.401 69.9861C972.147 68.7762 973.227 68.1712 974.64 68.1712ZM971.7 75.2113C971.7 76.8334 971.847 78.1032 972.14 79.0206L976.58 70.1855C976.114 69.5606 975.467 69.2482 974.64 69.2482C973.72 69.2482 973 69.7401 972.48 70.724C971.96 71.6946 971.7 73.1904 971.7 75.2113ZM974.64 81.1745C975.574 81.1745 976.3 80.6892 976.82 79.7186C977.34 78.7347 977.6 77.2323 977.6 75.2113C977.6 73.4962 977.433 72.1666 977.1 71.2226L972.66 80.1374C973.14 80.8288 973.8 81.1745 974.64 81.1745Z" fill="url(#paint92_linear_122_130)"/>
<path d="M974.64 90.964C976.067 90.964 977.147 91.569 977.88 92.7789C978.627 93.9755 979 95.7173 979 98.0041C979 100.291 978.627 102.039 977.88 103.249C977.147 104.459 976.067 105.064 974.64 105.064C973.227 105.064 972.147 104.459 971.401 103.249C970.654 102.039 970.281 100.291 970.281 98.0041C970.281 95.7306 970.654 93.9888 971.401 92.7789C972.147 91.569 973.227 90.964 974.64 90.964ZM971.7 98.0041C971.7 99.6262 971.847 100.896 972.14 101.813L976.58 92.9783C976.114 92.3534 975.467 92.041 974.64 92.041C973.72 92.041 973 92.5329 972.48 93.5168C971.96 94.4874 971.7 95.9832 971.7 98.0041ZM974.64 103.967C975.574 103.967 976.3 103.482 976.82 102.511C977.34 101.528 977.6 100.025 977.6 98.0041C977.6 96.289 977.433 94.9594 977.1 94.0154L972.66 102.93C973.14 103.622 973.8 103.967 974.64 103.967Z" fill="url(#paint93_linear_122_130)"/>
</g>
</g>
<defs>
<filter id="filter0_f_122_130" x="-559.19" y="-709.19" width="2141.38" height="1500.38" filterUnits="userSpaceOnUse" color-interpolation-filters="sRGB">
<feFlood flood-opacity="0" result="BackgroundImageFix"/>
<feBlend mode="normal" in="SourceGraphic" in2="BackgroundImageFix" result="shape"/>
<feGaussianBlur stdDeviation="200.095" result="effect1_foregroundBlur_122_130"/>
</filter>
<linearGradient id="paint0_linear_122_130" x1="51.5" y1="277" x2="51.5" y2="588.381" gradientUnits="userSpaceOnUse">
<stop stop-color="#F7DD43"/>
<stop offset="1" stop-color="#F7DD43" stop-opacity="0"/>
</linearGradient>
<linearGradient id="paint1_linear_122_130" x1="51.5" y1="277" x2="51.5" y2="588.381" gradientUnits="userSpaceOnUse">
<stop stop-color="#F7DD43"/>
<stop offset="1" stop-color="#F7DD43" stop-opacity="0"/>
</linearGradient>
<linearGradient id="paint2_linear_122_130" x1="51.5" y1="277" x2="51.5" y2="588.381" gradientUnits="userSpaceOnUse">
<stop stop-color="#F7DD43"/>
<stop offset="1" stop-color="#F7DD43" stop-opacity="0"/>
</linearGradient>
<linearGradient id="paint3_linear_122_130" x1="51.5" y1="277" x2="51.5" y2="588.381" gradientUnits="userSpaceOnUse">
<stop stop-color="#F7DD43"/>
<stop offset="1" stop-color="#F7DD43" stop-opacity="0"/>
</linearGradient>
<linearGradient id="paint4_linear_122_130" x1="51.5" y1="277" x2="51.5" y2="588.381" gradientUnits="userSpaceOnUse">
<stop stop-color="#F7DD43"/>
<stop offset="1" stop-color="#F7DD43" stop-opacity="0"/>
</linearGradient>
<linearGradient id="paint5_linear_122_130" x1="51.5" y1="277" x2="51.5" y2="588.381" gradientUnits="userSpaceOnUse">
<stop stop-color="#F7DD43"/>
<stop offset="1" stop-color="#F7DD43" stop-opacity="0"/>
</linearGradient>
<linearGradient id="paint6_linear_122_130" x1="51.5" y1="277" x2="51.5" y2="588.381" gradientUnits="userSpaceOnUse">
<stop stop-color="#F7DD43"/>
<stop offset="1" stop-color="#F7DD43" stop-opacity="0"/>
</linearGradient>
<linearGradient id="paint7_linear_122_130" x1="51.5" y1="277" x2="51.5" y2="588.381" gradientUnits="userSpaceOnUse">
<stop stop-color="#F7DD43"/>
<stop offset="1" stop-color="#F7DD43" stop-opacity="0"/>
</linearGradient>
<linearGradient id="paint8_linear_122_130" x1="51.5" y1="277" x2="51.5" y2="588.381" gradientUnits="userSpaceOnUse">
<stop stop-color="#F7DD43"/>
<stop offset="1" stop-color="#F7DD43" stop-opacity="0"/>
</linearGradient>
<linearGradient id="paint9_linear_122_130" x1="51.5" y1="277" x2="51.5" y2="588.381" gradientUnits="userSpaceOnUse">
<stop stop-color="#F7DD43"/>
<stop offset="1" stop-color="#F7DD43" stop-opacity="0"/>
</linearGradient>
<linearGradient id="paint10_linear_122_130" x1="51.5" y1="277" x2="51.5" y2="588.381" gradientUnits="userSpaceOnUse">
<stop stop-color="#F7DD43"/>
<stop offset="1" stop-color="#F7DD43" stop-opacity="0"/>
</linearGradient>
<linearGradient id="paint11_linear_122_130" x1="51.5" y1="277" x2="51.5" y2="588.381" gradientUnits="userSpaceOnUse">
<stop stop-color="#F7DD43"/>
<stop offset="1" stop-color="#F7DD43" stop-opacity="0"/>
</linearGradient>
<linearGradient id="paint12_linear_122_130" x1="51.5" y1="277" x2="51.5" y2="588.381" gradientUnits="userSpaceOnUse">
<stop stop-color="#F7DD43"/>
<stop offset="1" stop-color="#F7DD43" stop-opacity="0"/>
</linearGradient>
<linearGradient id="paint13_linear_122_130" x1="51.5" y1="277" x2="51.5" y2="588.381" gradientUnits="userSpaceOnUse">
<stop stop-color="#F7DD43"/>
<stop offset="1" stop-color="#F7DD43" stop-opacity="0"/>
</linearGradient>
<linearGradient id="paint14_linear_122_130" x1="51.5" y1="277" x2="51.5" y2="588.381" gradientUnits="userSpaceOnUse">
<stop stop-color="#F7DD43"/>
<stop offset="1" stop-color="#F7DD43" stop-opacity="0"/>
</linearGradient>
<linearGradient id="paint15_linear_122_130" x1="51.5" y1="277" x2="51.5" y2="588.381" gradientUnits="userSpaceOnUse">
<stop stop-color="#F7DD43"/>
<stop offset="1" stop-color="#F7DD43" stop-opacity="0"/>
</linearGradient>
<linearGradient id="paint16_linear_122_130" x1="51.5" y1="277" x2="51.5" y2="588.381" gradientUnits="userSpaceOnUse">
<stop stop-color="#F7DD43"/>
<stop offset="1" stop-color="#F7DD43" stop-opacity="0"/>
</linearGradient>
<linearGradient id="paint17_linear_122_130" x1="51.5" y1="277" x2="51.5" y2="588.381" gradientUnits="userSpaceOnUse">
<stop stop-color="#F7DD43"/>
<stop offset="1" stop-color="#F7DD43" stop-opacity="0"/>
</linearGradient>
<linearGradient id="paint18_linear_122_130" x1="51.5" y1="277" x2="51.5" y2="588.381" gradientUnits="userSpaceOnUse">
<stop stop-color="#F7DD43"/>
<stop offset="1" stop-color="#F7DD43" stop-opacity="0"/>
</linearGradient>
<linearGradient id="paint19_linear_122_130" x1="51.5" y1="277" x2="51.5" y2="588.381" gradientUnits="userSpaceOnUse">
<stop stop-color="#F7DD43"/>
<stop offset="1" stop-color="#F7DD43" stop-opacity="0"/>
</linearGradient>
<linearGradient id="paint20_linear_122_130" x1="51.5" y1="277" x2="51.5" y2="588.381" gradientUnits="userSpaceOnUse">
<stop stop-color="#F7DD43"/>
<stop offset="1" stop-color="#F7DD43" stop-opacity="0"/>
</linearGradient>
<linearGradient id="paint21_linear_122_130" x1="51.5" y1="277" x2="51.5" y2="588.381" gradientUnits="userSpaceOnUse">
<stop stop-color="#F7DD43"/>
<stop offset="1" stop-color="#F7DD43" stop-opacity="0"/>
</linearGradient>
<linearGradient id="paint22_linear_122_130" x1="51.5" y1="277" x2="51.5" y2="588.381" gradientUnits="userSpaceOnUse">
<stop stop-color="#F7DD43"/>
<stop offset="1" stop-color="#F7DD43" stop-opacity="0"/>
</linearGradient>
<linearGradient id="paint23_linear_122_130" x1="51.5" y1="277" x2="51.5" y2="588.381" gradientUnits="userSpaceOnUse">
<stop stop-color="#F7DD43"/>
<stop offset="1" stop-color="#F7DD43" stop-opacity="0"/>
</linearGradient>
<linearGradient id="paint24_linear_122_130" x1="51.5" y1="277" x2="51.5" y2="588.381" gradientUnits="userSpaceOnUse">
<stop stop-color="#F7DD43"/>
<stop offset="1" stop-color="#F7DD43" stop-opacity="0"/>
</linearGradient>
<linearGradient id="paint25_linear_122_130" x1="51.5" y1="277" x2="51.5" y2="588.381" gradientUnits="userSpaceOnUse">
<stop stop-color="#F7DD43"/>
<stop offset="1" stop-color="#F7DD43" stop-opacity="0"/>
</linearGradient>
<linearGradient id="paint26_linear_122_130" x1="51.5" y1="277" x2="51.5" y2="588.381" gradientUnits="userSpaceOnUse">
<stop stop-color="#F7DD43"/>
<stop offset="1" stop-color="#F7DD43" stop-opacity="0"/>
</linearGradient>
<linearGradient id="paint27_linear_122_130" x1="51.5" y1="277" x2="51.5" y2="588.381" gradientUnits="userSpaceOnUse">
<stop stop-color="#F7DD43"/>
<stop offset="1" stop-color="#F7DD43" stop-opacity="0"/>
</linearGradient>
<linearGradient id="paint28_linear_122_130" x1="51.5" y1="277" x2="51.5" y2="588.381" gradientUnits="userSpaceOnUse">
<stop stop-color="#F7DD43"/>
<stop offset="1" stop-color="#F7DD43" stop-opacity="0"/>
</linearGradient>
<linearGradient id="paint29_linear_122_130" x1="51.5" y1="277" x2="51.5" y2="588.381" gradientUnits="userSpaceOnUse">
<stop stop-color="#F7DD43"/>
<stop offset="1" stop-color="#F7DD43" stop-opacity="0"/>
</linearGradient>
<linearGradient id="paint30_linear_122_130" x1="51.5" y1="277" x2="51.5" y2="588.381" gradientUnits="userSpaceOnUse">
<stop stop-color="#F7DD43"/>
<stop offset="1" stop-color="#F7DD43" stop-opacity="0"/>
</linearGradient>
<linearGradient id="paint31_linear_122_130" x1="51.5" y1="277" x2="51.5" y2="588.381" gradientUnits="userSpaceOnUse">
<stop stop-color="#F7DD43"/>
<stop offset="1" stop-color="#F7DD43" stop-opacity="0"/>
</linearGradient>
<linearGradient id="paint32_linear_122_130" x1="51.5" y1="277" x2="51.5" y2="588.381" gradientUnits="userSpaceOnUse">
<stop stop-color="#F7DD43"/>
<stop offset="1" stop-color="#F7DD43" stop-opacity="0"/>
</linearGradient>
<linearGradient id="paint33_linear_122_130" x1="51.5" y1="277" x2="51.5" y2="588.381" gradientUnits="userSpaceOnUse">
<stop stop-color="#F7DD43"/>
<stop offset="1" stop-color="#F7DD43" stop-opacity="0"/>
</linearGradient>
<linearGradient id="paint34_linear_122_130" x1="51.5" y1="277" x2="51.5" y2="588.381" gradientUnits="userSpaceOnUse">
<stop stop-color="#F7DD43"/>
<stop offset="1" stop-color="#F7DD43" stop-opacity="0"/>
</linearGradient>
<linearGradient id="paint35_linear_122_130" x1="51.5" y1="277" x2="51.5" y2="588.381" gradientUnits="userSpaceOnUse">
<stop stop-color="#F7DD43"/>
<stop offset="1" stop-color="#F7DD43" stop-opacity="0"/>
</linearGradient>
<linearGradient id="paint36_linear_122_130" x1="51.5" y1="277" x2="51.5" y2="588.381" gradientUnits="userSpaceOnUse">
<stop stop-color="#F7DD43"/>
<stop offset="1" stop-color="#F7DD43" stop-opacity="0"/>
</linearGradient>
<linearGradient id="paint37_linear_122_130" x1="51.5" y1="277" x2="51.5" y2="588.381" gradientUnits="userSpaceOnUse">
<stop stop-color="#F7DD43"/>
<stop offset="1" stop-color="#F7DD43" stop-opacity="0"/>
</linearGradient>
<linearGradient id="paint38_linear_122_130" x1="51.5" y1="277" x2="51.5" y2="588.381" gradientUnits="userSpaceOnUse">
<stop stop-color="#F7DD43"/>
<stop offset="1" stop-color="#F7DD43" stop-opacity="0"/>
</linearGradient>
<linearGradient id="paint39_linear_122_130" x1="51.5" y1="277" x2="51.5" y2="588.381" gradientUnits="userSpaceOnUse">
<stop stop-color="#F7DD43"/>
<stop offset="1" stop-color="#F7DD43" stop-opacity="0"/>
</linearGradient>
<linearGradient id="paint40_linear_122_130" x1="51.5" y1="277" x2="51.5" y2="588.381" gradientUnits="userSpaceOnUse">
<stop stop-color="#F7DD43"/>
<stop offset="1" stop-color="#F7DD43" stop-opacity="0"/>
</linearGradient>
<linearGradient id="paint41_linear_122_130" x1="51.5" y1="277" x2="51.5" y2="588.381" gradientUnits="userSpaceOnUse">
<stop stop-color="#F7DD43"/>
<stop offset="1" stop-color="#F7DD43" stop-opacity="0"/>
</linearGradient>
<linearGradient id="paint42_linear_122_130" x1="51.5" y1="277" x2="51.5" y2="588.381" gradientUnits="userSpaceOnUse">
<stop stop-color="#F7DD43"/>
<stop offset="1" stop-color="#F7DD43" stop-opacity="0"/>
</linearGradient>
<linearGradient id="paint43_linear_122_130" x1="51.5" y1="277" x2="51.5" y2="588.381" gradientUnits="userSpaceOnUse">
<stop stop-color="#F7DD43"/>
<stop offset="1" stop-color="#F7DD43" stop-opacity="0"/>
</linearGradient>
<linearGradient id="paint44_linear_122_130" x1="51.5" y1="277" x2="51.5" y2="588.381" gradientUnits="userSpaceOnUse">
<stop stop-color="#F7DD43"/>
<stop offset="1" stop-color="#F7DD43" stop-opacity="0"/>
</linearGradient>
<linearGradient id="paint45_linear_122_130" x1="51.5" y1="277" x2="51.5" y2="588.381" gradientUnits="userSpaceOnUse">
<stop stop-color="#F7DD43"/>
<stop offset="1" stop-color="#F7DD43" stop-opacity="0"/>
</linearGradient>
<linearGradient id="paint46_linear_122_130" x1="51.5" y1="277" x2="51.5" y2="588.381" gradientUnits="userSpaceOnUse">
<stop stop-color="#F7DD43"/>
<stop offset="1" stop-color="#F7DD43" stop-opacity="0"/>
</linearGradient>
<linearGradient id="paint47_linear_122_130" x1="937.5" y1="-23" x2="937.5" y2="275.818" gradientUnits="userSpaceOnUse">
<stop stop-color="#F7DD43"/>
<stop offset="1" stop-color="#F7DD43" stop-opacity="0"/>
</linearGradient>
<linearGradient id="paint48_linear_122_130" x1="937.5" y1="-23" x2="937.5" y2="275.818" gradientUnits="userSpaceOnUse">
<stop stop-color="#F7DD43"/>
<stop offset="1" stop-color="#F7DD43" stop-opacity="0"/>
</linearGradient>
<linearGradient id="paint49_linear_122_130" x1="937.5" y1="-23" x2="937.5" y2="275.818" gradientUnits="userSpaceOnUse">
<stop stop-color="#F7DD43"/>
<stop offset="1" stop-color="#F7DD43" stop-opacity="0"/>
</linearGradient>
<linearGradient id="paint50_linear_122_130" x1="937.5" y1="-23" x2="937.5" y2="275.818" gradientUnits="userSpaceOnUse">
<stop stop-color="#F7DD43"/>
<stop offset="1" stop-color="#F7DD43" stop-opacity="0"/>
</linearGradient>
<linearGradient id="paint51_linear_122_130" x1="937.5" y1="-23" x2="937.5" y2="275.818" gradientUnits="userSpaceOnUse">
<stop stop-color="#F7DD43"/>
<stop offset="1" stop-color="#F7DD43" stop-opacity="0"/>
</linearGradient>
<linearGradient id="paint52_linear_122_130" x1="937.5" y1="-23" x2="937.5" y2="275.818" gradientUnits="userSpaceOnUse">
<stop stop-color="#F7DD43"/>
<stop offset="1" stop-color="#F7DD43" stop-opacity="0"/>
</linearGradient>
<linearGradient id="paint53_linear_122_130" x1="937.5" y1="-23" x2="937.5" y2="275.818" gradientUnits="userSpaceOnUse">
<stop stop-color="#F7DD43"/>
<stop offset="1" stop-color="#F7DD43" stop-opacity="0"/>
</linearGradient>
<linearGradient id="paint54_linear_122_130" x1="937.5" y1="-23" x2="937.5" y2="275.818" gradientUnits="userSpaceOnUse">
<stop stop-color="#F7DD43"/>
<stop offset="1" stop-color="#F7DD43" stop-opacity="0"/>
</linearGradient>
<linearGradient id="paint55_linear_122_130" x1="937.5" y1="-23" x2="937.5" y2="275.818" gradientUnits="userSpaceOnUse">
<stop stop-color="#F7DD43"/>
<stop offset="1" stop-color="#F7DD43" stop-opacity="0"/>
</linearGradient>
<linearGradient id="paint56_linear_122_130" x1="937.5" y1="-23" x2="937.5" y2="275.818" gradientUnits="userSpaceOnUse">
<stop stop-color="#F7DD43"/>
<stop offset="1" stop-color="#F7DD43" stop-opacity="0"/>
</linearGradient>
<linearGradient id="paint57_linear_122_130" x1="937.5" y1="-23" x2="937.5" y2="275.818" gradientUnits="userSpaceOnUse">
<stop stop-color="#F7DD43"/>
<stop offset="1" stop-color="#F7DD43" stop-opacity="0"/>
</linearGradient>
<linearGradient id="paint58_linear_122_130" x1="937.5" y1="-23" x2="937.5" y2="275.818" gradientUnits="userSpaceOnUse">
<stop stop-color="#F7DD43"/>
<stop offset="1" stop-color="#F7DD43" stop-opacity="0"/>
</linearGradient>
<linearGradient id="paint59_linear_122_130" x1="937.5" y1="-23" x2="937.5" y2="275.818" gradientUnits="userSpaceOnUse">
<stop stop-color="#F7DD43"/>
<stop offset="1" stop-color="#F7DD43" stop-opacity="0"/>
</linearGradient>
<linearGradient id="paint60_linear_122_130" x1="937.5" y1="-23" x2="937.5" y2="275.818" gradientUnits="userSpaceOnUse">
<stop stop-color="#F7DD43"/>
<stop offset="1" stop-color="#F7DD43" stop-opacity="0"/>
</linearGradient>
<linearGradient id="paint61_linear_122_130" x1="937.5" y1="-23" x2="937.5" y2="275.818" gradientUnits="userSpaceOnUse">
<stop stop-color="#F7DD43"/>
<stop offset="1" stop-color="#F7DD43" stop-opacity="0"/>
</linearGradient>
<linearGradient id="paint62_linear_122_130" x1="937.5" y1="-23" x2="937.5" y2="275.818" gradientUnits="userSpaceOnUse">
<stop stop-color="#F7DD43"/>
<stop offset="1" stop-color="#F7DD43" stop-opacity="0"/>
</linearGradient>
<linearGradient id="paint63_linear_122_130" x1="937.5" y1="-23" x2="937.5" y2="275.818" gradientUnits="userSpaceOnUse">
<stop stop-color="#F7DD43"/>
<stop offset="1" stop-color="#F7DD43" stop-opacity="0"/>
</linearGradient>
<linearGradient id="paint64_linear_122_130" x1="937.5" y1="-23" x2="937.5" y2="275.818" gradientUnits="userSpaceOnUse">
<stop stop-color="#F7DD43"/>
<stop offset="1" stop-color="#F7DD43" stop-opacity="0"/>
</linearGradient>
<linearGradient id="paint65_linear_122_130" x1="937.5" y1="-23" x2="937.5" y2="275.818" gradientUnits="userSpaceOnUse">
<stop stop-color="#F7DD43"/>
<stop offset="1" stop-color="#F7DD43" stop-opacity="0"/>
</linearGradient>
<linearGradient id="paint66_linear_122_130" x1="937.5" y1="-23" x2="937.5" y2="275.818" gradientUnits="userSpaceOnUse">
<stop stop-color="#F7DD43"/>
<stop offset="1" stop-color="#F7DD43" stop-opacity="0"/>
</linearGradient>
<linearGradient id="paint67_linear_122_130" x1="937.5" y1="-23" x2="937.5" y2="275.818" gradientUnits="userSpaceOnUse">
<stop stop-color="#F7DD43"/>
<stop offset="1" stop-color="#F7DD43" stop-opacity="0"/>
</linearGradient>
<linearGradient id="paint68_linear_122_130" x1="937.5" y1="-23" x2="937.5" y2="275.818" gradientUnits="userSpaceOnUse">
<stop stop-color="#F7DD43"/>
<stop offset="1" stop-color="#F7DD43" stop-opacity="0"/>
</linearGradient>
<linearGradient id="paint69_linear_122_130" x1="937.5" y1="-23" x2="937.5" y2="275.818" gradientUnits="userSpaceOnUse">
<stop stop-color="#F7DD43"/>
<stop offset="1" stop-color="#F7DD43" stop-opacity="0"/>
</linearGradient>
<linearGradient id="paint70_linear_122_130" x1="937.5" y1="-23" x2="937.5" y2="275.818" gradientUnits="userSpaceOnUse">
<stop stop-color="#F7DD43"/>
<stop offset="1" stop-color="#F7DD43" stop-opacity="0"/>
</linearGradient>
<linearGradient id="paint71_linear_122_130" x1="937.5" y1="-23" x2="937.5" y2="275.818" gradientUnits="userSpaceOnUse">
<stop stop-color="#F7DD43"/>
<stop offset="1" stop-color="#F7DD43" stop-opacity="0"/>
</linearGradient>
<linearGradient id="paint72_linear_122_130" x1="937.5" y1="-23" x2="937.5" y2="275.818" gradientUnits="userSpaceOnUse">
<stop stop-color="#F7DD43"/>
<stop offset="1" stop-color="#F7DD43" stop-opacity="0"/>
</linearGradient>
<linearGradient id="paint73_linear_122_130" x1="937.5" y1="-23" x2="937.5" y2="275.818" gradientUnits="userSpaceOnUse">
<stop stop-color="#F7DD43"/>
<stop offset="1" stop-color="#F7DD43" stop-opacity="0"/>
</linearGradient>
<linearGradient id="paint74_linear_122_130" x1="937.5" y1="-23" x2="937.5" y2="275.818" gradientUnits="userSpaceOnUse">
<stop stop-color="#F7DD43"/>
<stop offset="1" stop-color="#F7DD43" stop-opacity="0"/>
</linearGradient>
<linearGradient id="paint75_linear_122_130" x1="937.5" y1="-23" x2="937.5" y2="275.818" gradientUnits="userSpaceOnUse">
<stop stop-color="#F7DD43"/>
<stop offset="1" stop-color="#F7DD43" stop-opacity="0"/>
</linearGradient>
<linearGradient id="paint76_linear_122_130" x1="937.5" y1="-23" x2="937.5" y2="275.818" gradientUnits="userSpaceOnUse">
<stop stop-color="#F7DD43"/>
<stop offset="1" stop-color="#F7DD43" stop-opacity="0"/>
</linearGradient>
<linearGradient id="paint77_linear_122_130" x1="937.5" y1="-23" x2="937.5" y2="275.818" gradientUnits="userSpaceOnUse">
<stop stop-color="#F7DD43"/>
<stop offset="1" stop-color="#F7DD43" stop-opacity="0"/>
</linearGradient>
<linearGradient id="paint78_linear_122_130" x1="937.5" y1="-23" x2="937.5" y2="275.818" gradientUnits="userSpaceOnUse">
<stop stop-color="#F7DD43"/>
<stop offset="1" stop-color="#F7DD43" stop-opacity="0"/>
</linearGradient>
<linearGradient id="paint79_linear_122_130" x1="937.5" y1="-23" x2="937.5" y2="275.818" gradientUnits="userSpaceOnUse">
<stop stop-color="#F7DD43"/>
<stop offset="1" stop-color="#F7DD43" stop-opacity="0"/>
</linearGradient>
<linearGradient id="paint80_linear_122_130" x1="937.5" y1="-23" x2="937.5" y2="275.818" gradientUnits="userSpaceOnUse">
<stop stop-color="#F7DD43"/>
<stop offset="1" stop-color="#F7DD43" stop-opacity="0"/>
</linearGradient>
<linearGradient id="paint81_linear_122_130" x1="937.5" y1="-23" x2="937.5" y2="275.818" gradientUnits="userSpaceOnUse">
<stop stop-color="#F7DD43"/>
<stop offset="1" stop-color="#F7DD43" stop-opacity="0"/>
</linearGradient>
<linearGradient id="paint82_linear_122_130" x1="937.5" y1="-23" x2="937.5" y2="275.818" gradientUnits="userSpaceOnUse">
<stop stop-color="#F7DD43"/>
<stop offset="1" stop-color="#F7DD43" stop-opacity="0"/>
</linearGradient>
<linearGradient id="paint83_linear_122_130" x1="937.5" y1="-23" x2="937.5" y2="275.818" gradientUnits="userSpaceOnUse">
<stop stop-color="#F7DD43"/>
<stop offset="1" stop-color="#F7DD43" stop-opacity="0"/>
</linearGradient>
<linearGradient id="paint84_linear_122_130" x1="937.5" y1="-23" x2="937.5" y2="275.818" gradientUnits="userSpaceOnUse">
<stop stop-color="#F7DD43"/>
<stop offset="1" stop-color="#F7DD43" stop-opacity="0"/>
</linearGradient>
<linearGradient id="paint85_linear_122_130" x1="937.5" y1="-23" x2="937.5" y2="275.818" gradientUnits="userSpaceOnUse">
<stop stop-color="#F7DD43"/>
<stop offset="1" stop-color="#F7DD43" stop-opacity="0"/>
</linearGradient>
<linearGradient id="paint86_linear_122_130" x1="937.5" y1="-23" x2="937.5" y2="275.818" gradientUnits="userSpaceOnUse">
<stop stop-color="#F7DD43"/>
<stop offset="1" stop-color="#F7DD43" stop-opacity="0"/>
</linearGradient>
<linearGradient id="paint87_linear_122_130" x1="937.5" y1="-23" x2="937.5" y2="275.818" gradientUnits="userSpaceOnUse">
<stop stop-color="#F7DD43"/>
<stop offset="1" stop-color="#F7DD43" stop-opacity="0"/>
</linearGradient>
<linearGradient id="paint88_linear_122_130" x1="937.5" y1="-23" x2="937.5" y2="275.818" gradientUnits="userSpaceOnUse">
<stop stop-color="#F7DD43"/>
<stop offset="1" stop-color="#F7DD43" stop-opacity="0"/>
</linearGradient>
<linearGradient id="paint89_linear_122_130" x1="937.5" y1="-23" x2="937.5" y2="275.818" gradientUnits="userSpaceOnUse">
<stop stop-color="#F7DD43"/>
<stop offset="1" stop-color="#F7DD43" stop-opacity="0"/>
</linearGradient>
<linearGradient id="paint90_linear_122_130" x1="937.5" y1="-23" x2="937.5" y2="275.818" gradientUnits="userSpaceOnUse">
<stop stop-color="#F7DD43"/>
<stop offset="1" stop-color="#F7DD43" stop-opacity="0"/>
</linearGradient>
<linearGradient id="paint91_linear_122_130" x1="937.5" y1="-23" x2="937.5" y2="275.818" gradientUnits="userSpaceOnUse">
<stop stop-color="#F7DD43"/>
<stop offset="1" stop-color="#F7DD43" stop-opacity="0"/>
</linearGradient>
<linearGradient id="paint92_linear_122_130" x1="937.5" y1="-23" x2="937.5" y2="275.818" gradientUnits="userSpaceOnUse">
<stop stop-color="#F7DD43"/>
<stop offset="1" stop-color="#F7DD43" stop-opacity="0"/>
</linearGradient>
<linearGradient id="paint93_linear_122_130" x1="937.5" y1="-23" x2="937.5" y2="275.818" gradientUnits="userSpaceOnUse">
<stop stop-color="#F7DD43"/>
<stop offset="1" stop-color="#F7DD43" stop-opacity="0"/>
</linearGradient>
<clipPath id="clip0_122_130">
<rect width="1024" height="753" fill="white"/>
</clipPath>
</defs>
</svg>
